<svg width="36" height="46" viewBox="0 0 36 46" fill="none" xmlns="http://www.w3.org/2000/svg">
<g id="Group">
<g id="Group_2">
<path id="Vector" d="M12.6946 39.3274C8.35644 37.9785 5.44171 34.017 5.44171 29.4695C5.44171 27.2467 6.13756 25.129 7.45415 23.3453C7.48418 23.3046 7.5113 23.2601 7.53394 23.2149C7.75147 22.7799 7.5748 22.2515 7.13973 22.034C6.74596 21.8368 6.27495 21.9635 6.02782 22.3117C4.49212 24.3979 3.68036 26.8727 3.68036 29.4695C3.68036 32.0991 4.5107 34.5994 6.08155 36.6997C7.5999 38.7298 9.76268 40.2604 12.1716 41.0094C12.2587 41.0365 12.3468 41.0494 12.4334 41.0494C12.8088 41.0494 13.1568 40.8073 13.2741 40.4299C13.4185 39.9654 13.1591 39.4718 12.6946 39.3274Z" fill="white"/>
<path id="Vector_2" d="M35.2694 21.2016C35.2694 19.5252 34.7469 17.928 33.7583 16.581L28.1832 8.30483C28.0195 8.06184 27.7458 7.91616 27.4528 7.91616C27.1597 7.91616 26.886 8.06184 26.7223 8.30483L24.3731 11.7922L17.1094 1.00975C16.9458 0.766764 16.672 0.621094 16.3791 0.621094C16.0861 0.621094 15.8123 0.766764 15.6487 1.00975L3.17983 19.5192C1.0994 22.3464 0 25.6998 0 29.2189C0 38.2503 7.34765 45.5979 16.3791 45.5979C25.4105 45.5979 32.7581 38.2503 32.7581 29.2189C32.7581 28.4979 32.7099 27.7756 32.6163 27.0646C34.2419 25.6312 35.2694 23.5343 35.2694 21.2016ZM27.4528 10.3733L32.2971 17.5647C32.3068 17.5797 32.317 17.5944 32.3277 17.6088C33.0998 18.6545 33.508 19.8968 33.508 21.2015C33.508 24.5403 30.7916 27.2566 27.4528 27.2566C24.114 27.2566 21.3976 24.5403 21.3976 21.2015C21.3976 19.8968 21.8058 18.6545 22.5779 17.6088C22.5881 17.595 22.5979 17.5809 22.6073 17.5664L25.1018 13.8634C25.1063 13.8566 25.1111 13.8499 25.1155 13.843L27.4528 10.3733ZM30.9966 29.2189C30.9966 37.2791 24.4391 43.8365 16.379 43.8365C8.31873 43.8365 1.76135 37.2791 1.76135 29.2189C1.76135 26.0708 2.74687 23.0716 4.61153 20.5455C4.62218 20.5311 4.63249 20.5161 4.64244 20.5006L16.3791 3.07812L23.3113 13.3686L21.1473 16.5811C20.1587 17.928 19.6362 19.5253 19.6362 21.2016C19.6362 25.5117 23.1427 29.0182 27.4528 29.0182C28.7131 29.0182 29.9044 28.7179 30.9597 28.1859C30.9837 28.5294 30.9966 28.8742 30.9966 29.2189Z" fill="white"/>
<path id="Vector_3" d="M24.3497 20.9864C24.3497 20.5597 24.4366 20.1479 24.608 19.7624C24.8056 19.3179 24.6055 18.7974 24.161 18.5999C23.7165 18.4025 23.1961 18.6023 22.9985 19.0468C22.7263 19.6591 22.5883 20.3116 22.5883 20.9864C22.5883 22.5849 23.3823 24.0706 24.7123 24.9605C24.8627 25.0612 25.0329 25.1093 25.2013 25.1093C25.4854 25.1093 25.7642 24.972 25.934 24.7183C26.2045 24.314 26.0961 23.7669 25.6918 23.4965C24.8514 22.9341 24.3497 21.9958 24.3497 20.9864Z" fill="white"/>
<path id="Vector_4" d="M15.9635 40.5473C15.7479 39.9807 14.9434 39.8191 14.527 40.262C14.0313 40.7424 14.2981 41.6246 14.978 41.7478C15.652 41.8955 16.2395 41.1801 15.9635 40.5473Z" fill="white"/>
<path id="Vector_5" d="M26.9897 25.7634C27.5576 26.1567 28.3708 25.7218 28.3592 25.0315C28.3719 24.3411 27.5571 23.9054 26.9897 24.2988C26.4753 24.6211 26.4733 25.4421 26.9897 25.7634Z" fill="white"/>
</g>
</g>
</svg>
